<svg width="48" height="48" viewBox="0 0 48 48" fill="none" xmlns="http://www.w3.org/2000/svg">
<path d="M15.09 26.82C15.5518 26.9324 16.0248 26.9928 16.5 27C17.6915 26.9997 18.856 26.6446 19.845 25.98L24.675 30.285C24.2924 31.0116 24.0678 31.8109 24.0161 32.6304C23.9644 33.4499 24.0867 34.2711 24.375 35.04C24.6778 35.9112 25.1774 36.7009 25.8349 37.3476C26.4924 37.9944 27.2902 38.4809 28.1662 38.7693C29.0423 39.0577 29.973 39.1403 30.8862 39.0106C31.7993 38.8809 32.6703 38.5424 33.4314 38.0215C34.1925 37.5006 34.8233 36.8112 35.2747 36.0069C35.7261 35.2026 35.986 34.305 36.0342 33.384C36.0825 32.4629 35.9177 31.5432 35.5528 30.6961C35.1878 29.8491 34.6325 29.0976 33.93 28.5L37.74 20.865C38.4837 21.0327 39.2535 21.0488 40.0035 20.9122C40.7535 20.7756 41.4682 20.4891 42.105 20.07C43.1864 19.4101 44.0311 18.4248 44.5182 17.2553C45.0052 16.0859 45.1097 14.7923 44.8165 13.5598C44.5233 12.3274 43.8475 11.2194 42.886 10.3945C41.9245 9.56968 40.7266 9.07034 39.4639 8.96803C38.2012 8.86572 36.9386 9.1657 35.8568 9.825C34.775 10.4843 33.9297 11.4691 33.442 12.6382C32.9542 13.8074 32.849 15.1009 33.1414 16.3335C33.4339 17.5662 34.109 18.6746 35.07 19.5L31.26 27.135C30.8462 27.044 30.4237 26.9988 30 27C28.8085 27.0003 27.644 27.3554 26.655 28.02L21.825 23.715C22.2076 22.9884 22.4322 22.1891 22.4839 21.3696C22.5356 20.5501 22.4133 19.7289 22.125 18.96C21.8244 18.0951 21.3299 17.3105 20.6794 16.6663C20.0288 16.022 19.2394 15.5352 18.3716 15.2431C17.5039 14.951 16.5808 14.8614 15.6731 14.9811C14.7653 15.1008 13.897 15.4266 13.1346 15.9337C12.3723 16.4408 11.7361 17.1156 11.2747 17.9065C10.8134 18.6973 10.5392 19.5833 10.4731 20.4965C10.407 21.4097 10.5508 22.326 10.8935 23.175C11.2361 24.0241 11.7686 24.7835 12.45 25.395L6 37.5V3H3V42C3 42.7957 3.31607 43.5587 3.87868 44.1213C4.44129 44.6839 5.20435 45 6 45H45V42H7.005L15.09 26.82ZM39 12C39.5933 12 40.1734 12.1759 40.6667 12.5056C41.1601 12.8352 41.5446 13.3038 41.7716 13.8519C41.9987 14.4001 42.0581 15.0033 41.9424 15.5853C41.8266 16.1672 41.5409 16.7018 41.1213 17.1213C40.7018 17.5409 40.1672 17.8266 39.5853 17.9424C39.0033 18.0581 38.4001 17.9987 37.8519 17.7716C37.3038 17.5446 36.8352 17.1601 36.5056 16.6667C36.1759 16.1734 36 15.5933 36 15C36 14.2044 36.3161 13.4413 36.8787 12.8787C37.4413 12.3161 38.2043 12 39 12ZM33 33C33 33.5933 32.8241 34.1734 32.4944 34.6667C32.1648 35.1601 31.6962 35.5446 31.1481 35.7716C30.5999 35.9987 29.9967 36.0581 29.4147 35.9424C28.8328 35.8266 28.2982 35.5409 27.8787 35.1213C27.4591 34.7018 27.1734 34.1672 27.0576 33.5853C26.9419 33.0033 27.0013 32.4001 27.2284 31.8519C27.4554 31.3038 27.8399 30.8352 28.3333 30.5056C28.8266 30.1759 29.4067 30 30 30C30.7957 30 31.5587 30.3161 32.1213 30.8787C32.6839 31.4413 33 32.2043 33 33ZM16.5 18C17.0933 18 17.6734 17.1759 18.1667 17.5056C18.6601 17.8352 21.0446 19.3038 21.2716 19.8519C21.4987 20.4001 21.5581 21.0033 21.4424 21.5853C21.3266 22.1672 19.0409 23.7018 18.6213 24.1213C18.2018 24.5409 17.6672 24.8266 17.0853 24.9424C16.5033 25.0581 15.9001 23.9987 15.3519 23.7716C14.8038 23.5446 14.3352 23.1601 14.0056 22.6667C13.6759 22.1734 13.5 21.5933 13.5 21C13.5 20.2043 13.8161 19.4413 14.3787 18.8787C14.9413 18.3161 15.7044 18 16.5 18Z" fill="#748FB5"/>
<circle cx="17" cy="21" r="5" stroke="#FF6E30" stroke-width="4"/>
<circle cx="30" cy="33" r="5" stroke="#FF6E30" stroke-width="4"/>
<circle cx="39" cy="15" r="5" stroke="#FF6E30" stroke-width="4"/>
</svg>
