<svg width="48" height="48" viewBox="0 0 48 48" fill="none" xmlns="http://www.w3.org/2000/svg">
<path d="M6 4H38.01C40.214 4 42 5.796 42 7.98V40.02C42 42.218 40.214 44 38.01 44H6V4ZM14 8H10V40H14V8ZM18 40H38V8H18V40ZM22 32C22 30.4087 22.6321 28.8826 23.7574 27.7574C24.8826 26.6321 26.4087 26 28 26C29.5913 26 31.1174 26.6321 32.2426 27.7574C33.3679 28.8826 34 30.4087 34 32H28H22ZM28 24C26.9391 24 25.9217 23.5786 25.1716 22.8284C24.4214 22.0783 24 21.0609 24 20C24 18.9391 24.4214 17.9217 25.1716 17.1716C25.9217 16.4214 26.9391 16 28 16C29.0609 16 30.0783 16.4214 30.8284 17.1716C31.5786 17.9217 32 18.9391 32 20C32 21.0609 31.5786 22.0783 30.8284 22.8284C30.0783 23.5786 29.0609 24 28 24ZM44 12H48V20H44V12ZM44 24H48V32H44V24Z" fill="#748FB5"/>
<circle cx="28" cy="20" r="4" fill="#FF6E30"/>
<path d="M28 26C24.6863 26 22 28.6863 22 32H34C34 28.6863 31.3137 26 28 26Z" fill="#FF6E30"/>
</svg>
