<svg width="48" height="48" viewBox="0 0 48 48" fill="none" xmlns="http://www.w3.org/2000/svg">
<path d="M21.1085 12.4801L14.3425 4.67006C13.5625 3.77006 12.1325 3.77406 11.2265 4.68206L5.66246 10.2561C4.00646 11.9141 3.53246 14.3761 4.49046 16.3501C10.2137 28.2 19.7706 37.7702 31.6125 43.5101C33.5845 44.4681 36.0445 43.9941 37.7005 42.3361L43.3165 36.7101C44.2265 35.8001 44.2285 34.3621 43.3205 33.5821L35.4805 26.8521C34.6605 26.1481 33.3865 26.2401 32.5645 27.0641L29.8365 29.7961C29.6968 29.9424 29.513 30.0389 29.3132 30.0707C29.1134 30.1025 28.9087 30.0678 28.7305 29.9721C24.2714 27.4043 20.5724 23.7005 18.0105 19.2381C17.9145 19.0596 17.8798 18.8545 17.9116 18.6544C17.9434 18.4542 18.0399 18.27 18.1865 18.1301L20.9065 15.4081C21.7305 14.5801 21.8205 13.3001 21.1085 12.4781V12.4801Z" stroke="#FF6E30" stroke-width="3" stroke-linecap="round" stroke-linejoin="round"/>
</svg>
