<svg width="48" height="48" viewBox="0 0 48 48" fill="none" xmlns="http://www.w3.org/2000/svg">
<path d="M7.5003 16.5C7.43445 16.5 7.36888 16.5011 7.3036 16.5031L8.6744 10.809C8.67441 10.809 8.67441 10.809 8.67441 10.809C8.97008 9.58102 9.67039 8.48824 10.6626 7.70661C11.6548 6.92497 12.8812 6.49996 14.1443 6.5H14.1443H33.8603C36.4591 6.5 38.7204 8.28159 39.3302 10.8093L43.3142 27.355C43.5479 28.3255 43.5583 29.3364 43.3449 30.3115C43.1314 31.2867 42.6994 32.2007 42.0816 32.9848C41.4638 33.7689 40.6762 34.4026 39.778 34.8382C38.8799 35.2739 37.8946 35.5002 36.8964 35.5H36.8963H21.5003V33.5H36.8943C37.59 33.5 38.2766 33.3422 38.9025 33.0385C39.5284 32.7347 40.0773 32.293 40.5078 31.7465C40.9383 31.2 41.2392 30.563 41.3879 29.8834C41.5366 29.2038 41.5293 28.4994 41.3664 27.8231C41.3664 27.823 41.3664 27.823 41.3664 27.8229L37.3864 11.2771L37.3864 11.2769C37.1957 10.4854 36.7442 9.78101 36.1046 9.27728C35.465 8.77358 34.6744 8.4998 33.8603 8.5C33.8602 8.5 33.8602 8.5 33.8602 8.5H14.1463C12.471 8.5 11.0145 9.64849 10.6203 11.2763L10.6202 11.2771L9.36427 16.5H7.5003ZM34.5043 40.5H21.5043V38.5H34.5043C34.7695 38.5 35.0239 38.6054 35.2114 38.7929C35.3989 38.9804 35.5043 39.2348 35.5043 39.5C35.5043 39.7652 35.3989 40.0196 35.2114 40.2071C35.0239 40.3946 34.7695 40.5 34.5043 40.5Z" fill="#748FB5" stroke="#748FB5"/>
<path d="M6 40.5V21C6 20.4477 6.44771 20 7 20H16C16.5523 20 17 20.4477 17 21V40.5C17 41.0523 16.5523 41.5 16 41.5H7C6.44772 41.5 6 41.0523 6 40.5Z" stroke="#748FB5" stroke-width="3"/>
<circle cx="11.5" cy="26.5" r="2" fill="#748FB5" stroke="#748FB5"/>
</svg>
