<svg width="48" height="48" viewBox="0 0 48 48" fill="none" xmlns="http://www.w3.org/2000/svg">
<path d="M4.7998 13.2001C4.7998 12.2453 5.17909 11.3296 5.85422 10.6545C6.52935 9.97938 7.44503 9.6001 8.3998 9.6001H39.5998C40.5546 9.6001 41.4703 9.97938 42.1454 10.6545C42.8205 11.3296 43.1998 12.2453 43.1998 13.2001V21.3745C42.4434 21.0477 41.6232 20.8951 40.7998 20.9281V13.2001C40.7998 12.8818 40.6734 12.5766 40.4483 12.3516C40.2233 12.1265 39.9181 12.0001 39.5998 12.0001H8.3998C8.08154 12.0001 7.77632 12.1265 7.55128 12.3516C7.32623 12.5766 7.1998 12.8818 7.1998 13.2001V34.8001C7.1998 35.1184 7.32623 35.4236 7.55128 35.6486C7.77632 35.8737 8.08154 36.0001 8.3998 36.0001H14.3998V32.4001C14.3998 31.4453 14.7791 30.5296 15.4542 29.8545C16.1294 29.1794 17.045 28.8001 17.9998 28.8001H29.9998C30.9546 28.8001 31.8703 29.1794 32.5454 29.8545C33.2205 30.5296 33.5998 31.4453 33.5998 32.4001V34.9777C31.111 35.0569 29.9206 36.8737 29.2174 37.9441C29.1022 38.1193 29.0014 38.2753 28.9054 38.4001H8.3998C7.44503 38.4001 6.52935 38.0208 5.85422 37.3457C5.17909 36.6706 4.7998 35.7549 4.7998 34.8001V13.2001Z" fill="white"/>
<path d="M30 20.3999C30 21.9912 29.3679 23.5173 28.2426 24.6425C27.1174 25.7678 25.5913 26.3999 24 26.3999C22.4087 26.3999 20.8826 25.7678 19.7574 24.6425C18.6321 23.5173 18 21.9912 18 20.3999C18 18.8086 18.6321 17.2825 19.7574 16.1573C20.8826 15.032 22.4087 14.3999 24 14.3999C25.5913 14.3999 27.1174 15.032 28.2426 16.1573C29.3679 17.2825 30 18.8086 30 20.3999V20.3999Z" fill="white"/>
<path d="M38.0048 27.0361L38.9624 24.7777C39.4112 23.7169 40.4864 23.1409 41.5424 23.3617L41.768 23.4193L42.968 23.8033C44.1584 24.1849 45.068 25.2025 45.3632 26.4817C46.0616 29.5225 45.224 33.2257 42.8456 37.5889C40.472 41.9473 37.8728 44.5657 35.0432 45.4489C33.944 45.7921 32.7632 45.5449 31.8752 44.7985L31.6424 44.5825L30.7304 43.6681C30.3473 43.2737 30.0998 42.7674 30.0238 42.2228C29.9479 41.6782 30.0474 41.1235 30.308 40.6393L30.4424 40.4185L31.8152 38.4025C32.0648 38.0219 32.4228 37.725 32.843 37.55C33.2631 37.375 33.7261 37.33 34.172 37.4209L34.412 37.4857L36.9488 38.3329C37.9592 37.5649 38.804 36.6049 39.4784 35.4409C40.0568 34.4449 40.4384 33.4369 40.6136 32.4145L40.6856 31.9009L38.576 29.8969C38.2355 29.5651 37.9935 29.1456 37.8766 28.6847C37.7597 28.2239 37.7725 27.7397 37.9136 27.2857L38.0024 27.0361H38.0048Z" fill="white"/>
</svg>
