<svg width="48" height="48" viewBox="0 0 48 48" fill="none" xmlns="http://www.w3.org/2000/svg">
<path d="M14.1405 24.868C14.261 24.6088 14.453 24.3894 14.6939 24.2356C14.9348 24.0818 15.2147 24.0001 15.5005 24H35.5705C36.0804 24.0002 36.5841 24.1119 37.0463 24.3271C37.5085 24.5423 37.9182 24.8559 38.2465 25.246L45.6465 34.034C45.8742 34.3044 45.999 34.6465 45.999 35C45.999 35.3535 45.8742 35.6956 45.6465 35.966L38.2465 44.754C37.9182 45.1441 37.5085 45.4577 37.0463 45.6729C36.5841 45.8881 36.0804 45.9998 35.5705 46H15.5005C15.2148 46.0001 14.9349 45.9185 14.6939 45.765C14.4529 45.6114 14.2608 45.3921 14.1402 45.1331C14.0196 44.874 13.9755 44.5858 14.0131 44.3026C14.0507 44.0193 14.1685 43.7526 14.3525 43.534L21.5405 35L14.3525 26.466C14.1684 26.2473 14.0506 25.9804 14.013 25.6969C13.9754 25.4135 14.0197 25.1252 14.1405 24.866V24.868ZM18.7245 27L24.6485 34.034C24.8762 34.3044 25.001 34.6465 25.001 35C25.001 35.3535 24.8762 35.6956 24.6485 35.966L18.7245 43H35.5705C35.6433 42.9999 35.7152 42.984 35.7812 42.9532C35.8472 42.9225 35.9057 42.8777 35.9525 42.822L42.5405 35L35.9525 27.178C35.9057 27.1223 35.8472 27.0775 35.7812 27.0468C35.7152 27.016 35.6433 27.0001 35.5705 27H18.7245Z" fill="#FF6E30"/>
<path d="M4 10.5C4 8.77609 4.68482 7.12279 5.90381 5.90381C7.12279 4.68482 8.77609 4 10.5 4H31.5C33.2239 4 34.8772 4.68482 36.0962 5.90381C37.3152 7.12279 38 8.77609 38 10.5V22.566C37.2441 22.1936 36.4127 22 35.57 22H35V10.5C35 9.57174 34.6313 8.6815 33.9749 8.02513C33.3185 7.36875 32.4283 7 31.5 7H10.5C9.57174 7 8.6815 7.36875 8.02513 8.02513C7.36875 8.6815 7 9.57174 7 10.5V33.5C7 35.432 8.568 37 10.5 37H17.24L14.714 40H10.5C8.77609 40 7.12279 39.3152 5.90381 38.0962C4.68482 36.8772 4 35.2239 4 33.5V10.5ZM13.5 12C13.1022 12 12.7206 12.158 12.4393 12.4393C12.158 12.7206 12 13.1022 12 13.5C12 13.8978 12.158 14.2794 12.4393 14.5607C12.7206 14.842 13.1022 15 13.5 15H28.5C28.8978 15 29.2794 14.842 29.5607 14.5607C29.842 14.2794 30 13.8978 30 13.5C30 13.1022 29.842 12.7206 29.5607 12.4393C29.2794 12.158 28.8978 12 28.5 12H13.5ZM13.5 18C13.1022 18 12.7206 18.158 12.4393 18.4393C12.158 18.7206 12 19.1022 12 19.5C12 19.8978 12.158 20.2794 12.4393 20.5607C12.7206 20.842 13.1022 21 13.5 21H22.5C22.8978 21 23.2794 20.842 23.5607 20.5607C23.842 20.2794 24 19.8978 24 19.5C24 19.1022 23.842 18.7206 23.5607 18.4393C23.2794 18.158 22.8978 18 22.5 18H13.5Z" fill="#748FB5"/>
</svg>
